<svg xmlns="http://www.w3.org/2000/svg" fill="white" viewBox="0 0 24 24">
  <path d="M12 2.163c3.204 0 3.584.012 4.85.07 1.366.062 2.633.35 3.608 1.325.975.975 1.263 2.242 1.325 3.608.058 1.266.07 1.646.07 4.85s-.012 3.584-.07 4.85c-.062 1.366-.35 2.633-1.325 3.608-.975.975-2.242 1.263-3.608 1.325-1.266.058-1.646.07-4.85.07s-3.584-.012-4.85-.07c-1.366-.062-2.633-.35-3.608-1.325-.975-.975-1.263-2.242-1.325-3.608C2.175 15.584 2.163 15.204 2.163 12s.012-3.584.07-4.85c.062-1.366.35-2.633 1.325-3.608C4.533 2.583 5.8 2.295 7.166 2.233 8.432 2.175 8.812 2.163 12 2.163m0-2.163C8.741 0 8.332.014 7.052.072 5.771.13 4.583.423 3.6 1.407 2.616 2.39 2.323 3.578 2.265 4.859.014 8.332 0 8.741 0 12s.014 3.668.072 4.948c.058 1.281.351 2.469 1.335 3.452.983.983 2.171 1.277 3.452 1.335C8.332 23.986 8.741 24 12 24s3.668-.014 4.948-.072c1.281-.058 2.469-.351 3.452-1.335.983-.983 1.277-2.171 1.335-3.452C23.986 15.668 24 15.259 24 12s-.014-3.668-.072-4.948c-.058-1.281-.351-2.469-1.335-3.452-.983-.983-2.171-1.277-3.452-1.335C15.668.014 15.259 0 12 0z"/>
  <path d="M12 5.838a6.162 6.162 0 1 0 0 12.324 6.162 6.162 0 0 0 0-12.324zm0 10.162a4 4 0 1 1 0-8 4 4 0 0 1 0 8z"/>
  <circle cx="18.406" cy="5.594" r="1.44"/>
</svg>
